# xmcd
#
# Track frame offsets:
# 150
# 14834
# 25284
# 43663
# 57251
# 75078
# 94261
# 115206
# 131264
# 145708
#
# Disc length: 2135 seconds
#
# Revision: 1
# Processed by: cddbd v1.5.1PL0 Copyright (c) Steve Scherf et al.
# Submitted via: Easy CD Ripper v2.15
#
DISCID=7b08550a
DTITLE=Kelly Luttrell - Things I know Now
DYEAR=1997
DGENRE=Country
TTITLE0=Talk To Me - Kelly Luttrell
TTITLE1=Broken Glass
TTITLE2=It´s a Long Way Home
TTITLE3=I´ve Been Here Before
TTITLE4=I Don´t Want To Walk Away
TTITLE5=I Heard It On The Wind
TTITLE6=Warrior Boy
TTITLE7=Love Finds Love
TTITLE8=I Cant´t Wait
TTITLE9=Fields Of Gold
EXTD=
EXTT0=
EXTT1=
EXTT2=
EXTT3=
EXTT4=
EXTT5=
EXTT6=
EXTT7=
EXTT8=
EXTT9=
PLAYORDER=
